<svg id="Ebene_1" data-name="Ebene 1" xmlns="http://www.w3.org/2000/svg" viewBox="0 0 275.39 289.33"><defs><style>.cls-1{fill:#231f20;}.cls-2{fill:none;}</style></defs><title>RK_Logo_rund_2 (1)</title><path class="cls-1" d="M313.41,290.18l.88,6.76-2-.15a7.53,7.53,0,0,1,3,5.3,7.37,7.37,0,0,1-.06,2.38l-7.22-.56a6.77,6.77,0,0,0,.33-3.37,8,8,0,0,0-2.06-4.23l-15-1.17-.89-6.76Z" transform="translate(-286.78 -136.93)"/><path class="cls-1" d="M299.8,324.85a8.56,8.56,0,0,1-3.24-4.51c-1.58-4.95,1.73-10.18,6.72-11.77,7.1-2.26,14.27.9,16.58,8.13a8.15,8.15,0,0,1,0,5.64l1.39-.1,2.05,6.41-23,2.29-1.87-5.85Zm5.94-1.13,7.89-.81a5.13,5.13,0,0,0,.32-4.23,6,6,0,0,0-7.74-3.88c-2.84.9-3.89,3.09-3.14,5.45A6.57,6.57,0,0,0,305.74,323.72Z" transform="translate(-286.78 -136.93)"/><path class="cls-1" d="M312.65,352a8.64,8.64,0,0,1-4.08-3.77c-2.53-4.54-.34-10.32,4.24-12.88,6.5-3.64,14.16-2,17.86,4.65a8,8,0,0,1,1.15,5.47l10.54-3.26,3.33,5.95-31.31,9.7-3-5.36Zm5.59-2.3,7.58-2.38a5,5,0,0,0-.54-4.2,6,6,0,0,0-8.36-2.26c-2.6,1.46-3.2,3.81-2,6A6.56,6.56,0,0,0,318.24,349.72Z" transform="translate(-286.78 -136.93)"/><path class="cls-1" d="M334.12,364.87,324,370.34l-4.41-5.2,28.87-15.53,4.41,5.2L335,364.4l13.83.4,5.26,6.2-15.5-.48-4.49,11.81-4.62-5.44Z" transform="translate(-286.78 -136.93)"/><path class="cls-1" d="M346.54,393.17a10.29,10.29,0,0,1-1.61-15c4.53-5.57,12.08-6.54,18-1.72a10.25,10.25,0,0,1,1.63,15A12.39,12.39,0,0,1,346.54,393.17ZM351,388.6c2.45,2,5.77,1.49,7.85-1.06,1.89-2.32,1.52-4.94-.41-6.51a5.39,5.39,0,0,0-7.82,1C348.75,384.37,349.09,387,351,388.6Z" transform="translate(-286.78 -136.93)"/><path class="cls-1" d="M393.87,407.06a11,11,0,0,0,1.05-1.71c.85-1.79.64-3.39-1.15-4.23a5.87,5.87,0,0,0-5.12.69,12,12,0,0,1-1.22,1.87l-7.22,9.54-6.17-2.9,7-9.27a10.93,10.93,0,0,0,1.05-1.7c.84-1.8.64-3.39-1.16-4.23a5.76,5.76,0,0,0-4.69.44l-8.87,11.65-6.17-2.89,13.93-18.41,6.09,2.86-1,1.38a7.34,7.34,0,0,1,5.48.32,7,7,0,0,1,4.11,5.17,10.59,10.59,0,0,1,7.87.45c4.95,2.33,6.11,6.66,4,11a13.72,13.72,0,0,1-1.55,2.57L393,419.22l-6.17-2.9Z" transform="translate(-286.78 -136.93)"/><path class="cls-1" d="M415.31,391.18l6.7,1.25-4.08,9.8a8.5,8.5,0,0,1,4.67-.41c5.37,1,8.27,6.37,7.31,11.52-1.37,7.33-7,12.24-15,10.75a8.09,8.09,0,0,1-5-2.63l-.5,1.23-6.7-1.25Zm.05,17.19-3,7.29a5,5,0,0,0,3.62,2.28,6,6,0,0,0,7.08-5c.55-2.93-.87-4.9-3.32-5.36A6.48,6.48,0,0,0,415.36,408.37Z" transform="translate(-286.78 -136.93)"/><path class="cls-1" d="M437.73,403.38l6.86.26L439,426l-6.86-.25Zm1.11-3.17a4.17,4.17,0,0,1-.46-2.14,4.31,4.31,0,0,1,4.82-4.34,3.42,3.42,0,0,1,3.53,3.52,4.39,4.39,0,0,1-1.52,3.2Z" transform="translate(-286.78 -136.93)"/><path class="cls-1" d="M449.8,403.29l6.68-.76-.11,1.84a8.42,8.42,0,0,1,5.73-2.83c4.8-.54,7.92,3,8.41,7.32a9.89,9.89,0,0,1,0,2.37l-1.21,12.59-6.78.76,1.15-12a7.24,7.24,0,0,0,0-1.68c-.21-1.89-1.21-3.14-3.64-2.87a6.09,6.09,0,0,0-4.23,2.75l-1.44,14.71-6.77.76Z" transform="translate(-286.78 -136.93)"/><path class="cls-1" d="M491.16,416.22a8.56,8.56,0,0,1-4.52,3.23c-4.95,1.57-10.17-1.75-11.75-6.75-2.25-7.1.93-14.27,8.16-16.56a8.23,8.23,0,0,1,5.65,0l-.11-1.39,6.41-2,2.25,23-5.85,1.85ZM490,410.28l-.8-7.9a5.11,5.11,0,0,0-4.22-.32,6,6,0,0,0-3.9,7.72c.9,2.85,3.08,3.91,5.45,3.16A6.6,6.6,0,0,0,490,410.28Z" transform="translate(-286.78 -136.93)"/><path class="cls-1" d="M497.22,390.77l4.23-2.25-.92-3.35,5-6.51,1.91,6.66,5.66-3,1.6,5.9-5.58,3,2.2,7.58a4.22,4.22,0,0,0,.35.94c.55,1,1.38,1.16,2.7.46l3.27-1.74,1.77,6.11-4.5,2.4c-3.63,1.93-6.76,1.15-8.65-2.4a12.57,12.57,0,0,1-1-2.54l-2.15-7.6L500,396Z" transform="translate(-286.78 -136.93)"/><path class="cls-2" d="M516.52,246.65c9.83,11.78,12.27,26.92,12.29,29.32.74,2.87,4.49,5.13,11.34,7.53,8.39,2.95,10.38-.8,10.76-1.93l.1-.29v0c2-6.54,4.79-16.41,4.81-18.82a3.09,3.09,0,0,0-.14-1.26c-1.16-.56-1.45-1.5-1.27-3.93.3-4.45,2-15,2.94-20.9a2.83,2.83,0,0,0-2.18-.87,1.12,1.12,0,0,0-.46.07c-.56,2.14-2,2.95-3.06,2.95a2.42,2.42,0,0,1-1.9-.91,4.16,4.16,0,0,1-.76-3.46c.57-3.57,4.22-22.12,5-25.45a1.17,1.17,0,0,0-.18-1,3.12,3.12,0,0,0-2.29-.85,1.78,1.78,0,0,0-1,.21c-1,3.75-3.25,6-5.95,6a5,5,0,0,1-3.86-2c-1.54-1.92-2-4.84-1.34-8,2.06-9.46,3.43-16.71,3.68-18.31-.7-.92-3.18-.86-3.31-.75-2.91,7.08-6.92,11.16-11,11.16a6.18,6.18,0,0,1-4.7-2.29c-2.12-2.5-2.92-6.46-2.19-10.9.9-5.6,1.73-9,2.22-11.06.19-.74.32-1.27.37-1.62a7.78,7.78,0,0,0-3.49-1,1.37,1.37,0,0,0-.46.05c-1.81,5.56-5.73,9.27-9.88,9.27a6,6,0,0,1-4.72-2.23c-1.86-2.19-2.47-5.74-1.73-10,.3-1.7,1-9.2,1.27-12l.08-.89c-.11.09-1.2-.3-2.89-.3a4.48,4.48,0,0,0-1.79.24c-.46.73-3.67,6.12-6.18,10.7a11.16,11.16,0,0,1-9.63,5.4,7.87,7.87,0,0,1-6.43-2.88c-1.14-1.5-2.26-4.24-1.13-8.91a3.31,3.31,0,0,0-.64-.34A64,64,0,0,1,467,163.6a76.44,76.44,0,0,1-10.79,5l-1.39.55c-.93.37-1.68.68-2.34,1,2.41-.54,5.35-.45,4.37,3.78-8.3,35.66,3.66,37.63,30.82,51.89C489.64,226.79,506.82,235,516.52,246.65Zm-58-63.91c1.08-9.93,13.35-11.52,15.16-10.37s4.27,5.43,11,2,10.12-2.26,13.38,3.67,7.77,5.72,9.72,6.05,3.84-.37,5.31,7,1,8.95,10.14,9.55,9.06,1.28,9.55,6.56,2.1,8.79,8.26,10.11c3.72.79,3,.92,2.22,6.94s-2.71,16.29,1.34,19.4,4.53,3.74,4.19,7.17-.76,7.72-1,11.1,2.25.8,1.58,5.61-1,9.17-3,8.91-5.69.09-7.1-5.63c-5.74-23.09-13-50.23-70.82-72.73C458.29,194.1,458.56,182.74,458.56,182.74Z" transform="translate(-286.78 -136.93)"/><path class="cls-2" d="M419,284a87.24,87.24,0,0,0-8.84,14.47,132.17,132.17,0,0,0,16-4.85,113.14,113.14,0,0,0,14.54-6.83,56.14,56.14,0,0,0-6.67,13.32c-2.84,8.07-2,13.38-2,13.38a178.22,178.22,0,0,0,15.53-17.94c7.14-9.63,18.59-28.05,18.59-28.05S483.9,272.43,485,264s-16.36-16.47-16.36-16.47,22.19-8.8,41.16,4.33a37.55,37.55,0,0,1,10.59,11.28l0,.05a41.48,41.48,0,0,1,4.8,10.83c.25-1.16-2.68-15.89-12.5-25.53-10.87-10.69-34.85-19.16-34.85-19.16l8.68,10.18s-5.57-3.33-15-4.7a61.34,61.34,0,0,0-17.3,0,9,9,0,0,0,1.9,3.79,25.56,25.56,0,0,0,4,4.13,128.11,128.11,0,0,0-15.31-3.12c-8.39-1.18-17.92-1.53-17.92-1.53a32.42,32.42,0,0,0,5.15,4.65,65.71,65.71,0,0,0,7.21,4.68s-10.3-1.74-22.24-2.66-23.29-.84-23.29-.85,6.76,2.34,14.68,4.2S429,252.19,429,252.19a56.77,56.77,0,0,0-14.39,1.5,60.4,60.4,0,0,0-15.13,5.65,140.65,140.65,0,0,0,20.88,1.07A80.45,80.45,0,0,0,438,258.18s-15.86,6.31-21.44,9.35-18.24,12.24-18.24,12.24,11.08-.4,18.55-2.14A68.7,68.7,0,0,0,431.58,272S423.72,278.17,419,284Z" transform="translate(-286.78 -136.93)"/><path class="cls-2" d="M513.1,260.11c-.27-.05-.52-.12-.77-.15s-.63,0-.94,0a7.84,7.84,0,0,0-8.05,6.77c-.44,4.17,2.88,7.94,7.41,8.41s8.55-2.57,9-6.71a5.88,5.88,0,0,0,0-1.11A38.55,38.55,0,0,0,513.1,260.11Zm3.6,5.25-3.54,1.83,4.36,1.7a4.07,4.07,0,0,1-.6,1.58,4.55,4.55,0,0,1-5,2,4.33,4.33,0,0,1-1.21-.53,4.54,4.54,0,0,1,3.55-8.25,4.29,4.29,0,0,1,1.21.53A4.86,4.86,0,0,1,516.7,265.36Z" transform="translate(-286.78 -136.93)"/><path class="cls-2" d="M518.65,318.42a7.37,7.37,0,0,1,4.56,1.71c3.61,2.83,6.88,8.27,8.71,11.63,0-4.69-1.64-14.09-11.86-23.48-.79-.72-2.43-.92-4.25-1.1a18,18,0,0,0-1.26,6.55,11.74,11.74,0,0,0,1,5.65A5.71,5.71,0,0,1,518.65,318.42Zm1-7.5c3.13,1.46,8.51,12.36,8.51,12.36l-10.64-12S516.5,309.48,519.63,310.92Z" transform="translate(-286.78 -136.93)"/><path class="cls-2" d="M390.82,168.27a10.59,10.59,0,0,0-4.68,1.1c-3.69,1.76-7.35,3.51-10.93,5.37a118.94,118.94,0,0,0-13.42,7.8,7.92,7.92,0,0,0-3.43,5.27,5.87,5.87,0,0,0,0,2.13,7,7,0,0,0,4.66,5.53c3.48,1.42,7.91.37,9.66-3.47a12.9,12.9,0,0,1,3.85-5.57,30.91,30.91,0,0,1,4.15-2.72,15.69,15.69,0,0,1,7.71-1.19,13.34,13.34,0,0,0,4.23-.25,7.5,7.5,0,0,0,4.83-3.2,6.8,6.8,0,0,0-1.38-8.66A7.33,7.33,0,0,0,390.82,168.27Z" transform="translate(-286.78 -136.93)"/><path class="cls-2" d="M380.13,191.19c-4,4.48-3.73,10.33.55,14.22a10,10,0,0,0,14.53-.59c4-4.36,3.52-9.73-.58-14.06C390,187.21,384.72,187,380.13,191.19Z" transform="translate(-286.78 -136.93)"/><path class="cls-2" d="M524.59,277.63c-.3-.64-.63-1.48-.84-2.07h0c-.14-.38-.24-.69-.24-.69l.06,0a25.28,25.28,0,0,0-2.27-5.11,9.71,9.71,0,0,1-9.62,7.22,10.73,10.73,0,0,1-1.12-.05c-5.49-.58-9.53-5.24-9-10.4a9.54,9.54,0,0,1,9.06-8.34c-10.3-7.12-23-4.36-23-4.36s4.71,6.38,3,12.06c-1.43,4.69-4.69,5.72-5.81,6,2.11.71,9.73,3.58,10.6,8.27.36,1.91,1.1,2.66,3.65.11,1.91-1.91,3.76-1.46,2.44,7-.61,3.8.7,3.89,2.12,2.84s11.68-5.93,15.55-7.27S526.17,280.93,524.59,277.63Z" transform="translate(-286.78 -136.93)"/><path class="cls-2" d="M498.86,291.37c1.35-7.32.93-9.33.93-9.33l-8.58,7.14s4.06-3.52,2.74-8c-1.05-3.61-7.15-6.68-9.57-7.77-1.69-.75-10.62-4.13-17.55,3.87-23.56,27.24-45.34,58.23-45.34,58.23s4.7.65,13.46-3.72,12.85-10.08,12.85-10.08-5.11,8.12,2.82,26.42c6.17,14.26,5,23.59,5.33,28.12a11.2,11.2,0,0,0,3.86,7.41,5.45,5.45,0,0,1,1.88.7,7.84,7.84,0,0,0,2.72,1.11c5.69,1.1,15.95-5.95,18.59-8.89a29.44,29.44,0,0,1,3-2.75c7.75-5.57,8.81-13.15,13.14-21.32,2.09-3.92,4.23-6.27,6-9.26.41-.71.79-1.4,1.16-2.08.17-.36.36-.77.65-1.31.67-1.33,1.61-3.17,2.49-5.23l0,0c.3-.67.59-1.38.87-2.11.34-.94.68-1.93,1-2.9.16-.66.39-1.47.72-2.55a2.46,2.46,0,0,0,.07-.29c1.51-5.25.57-18,.57-18s-6.8.54-11.2-3.06S497.51,298.68,498.86,291.37Zm-66.78,35.8s16.19-18.23,22.84-26.54,15.54-22.3,29.14-22.65c9.12-.23,7.59,9.52,3.83,10.78-5.24,1.76-31,8.78-39.45,27.36C443.67,326.62,432.08,327.17,432.08,327.17Zm71.3,10.31s-13.1,27.81-16.11,32.47-8.18,1.74-7.24-2.64,1.44-6.9,1.89-8.77a2,2,0,0,0-3.83-.82c-1,2.66-4.73,12.9-7.68,16.83s-9.86,7.35-11.94-4.86-5.9-24.87-8.67-33.72c-1.28-4.11-4.13-10.48,16.92-27.93,32.58-27,25.54-5.1,24,.69-2.85,10.81,4.87,10.71,5.88,7.39C499.11,307.83,513.09,317.26,503.38,337.48Z" transform="translate(-286.78 -136.93)"/><path class="cls-2" d="M550.61,287.06a4.38,4.38,0,0,0-.86-.26c-2.07-.44-1.73.75-9.84-1.6s-9.7-3.94-9.7-3.94L522.45,283a114.5,114.5,0,0,1,21,7.24c10.92,5,15,12.78,15,12.78l-3.2-8.56C553.6,291.45,551.62,288.52,550.61,287.06Zm1.7,6.79-2.61-1-2.43-4.08s.45-1.24,3,1S552.31,293.85,552.31,293.85Z" transform="translate(-286.78 -136.93)"/><path d="M539.31,270.81c1.41,5.72,5.18,5.37,7.1,5.63s2.3-4.11,3-8.91-1.81-2.22-1.58-5.61.65-7.68,1-11.1-.16-4.06-4.19-7.17-2.08-13.38-1.34-19.4,1.5-6.15-2.22-6.94c-6.16-1.32-7.82-4.83-8.26-10.11s-.45-6-9.55-6.56-8.67-2.15-10.14-9.55-3.34-6.71-5.31-7-6.47-.11-9.72-6.05-6.69-7.15-13.38-3.67-9.17-.82-11-2-14.08.44-15.16,10.37c0,0-.27,11.36,9.93,15.34C526.27,220.58,533.57,247.72,539.31,270.81Z" transform="translate(-286.78 -136.93)"/><path d="M496.61,316.12c-1,3.32-8.73,3.42-5.88-7.39,1.53-5.79,8.57-27.7-24-.69-21.05,17.45-18.2,23.82-16.92,27.93,2.77,8.85,6.6,21.5,8.67,33.72s9,8.78,11.94,4.86,6.63-14.17,7.68-16.83a2,2,0,0,1,3.83.82c-.45,1.87-1,4.38-1.89,8.77s4.21,7.29,7.24,2.64,16.11-32.47,16.11-32.47C513.09,317.26,499.11,307.83,496.61,316.12Z" transform="translate(-286.78 -136.93)"/><path d="M509.21,265.71a4.52,4.52,0,0,0,1.48,6.24,4.33,4.33,0,0,0,1.21.53,4.55,4.55,0,0,0,5-2,4.07,4.07,0,0,0,.6-1.58l-4.36-1.7,3.54-1.83a4.86,4.86,0,0,0-1.25-1.13,4.29,4.29,0,0,0-1.21-.53A4.53,4.53,0,0,0,509.21,265.71Z" transform="translate(-286.78 -136.93)"/><path d="M487.89,288.76c3.76-1.26,5.29-11-3.83-10.78-13.6.35-22.5,14.34-29.14,22.65s-22.84,26.54-22.84,26.54,11.59-.55,16.36-11.05C456.85,297.54,482.65,290.52,487.89,288.76Z" transform="translate(-286.78 -136.93)"/><path d="M550.28,289.75c-2.56-2.22-3-1-3-1l2.43,4.08,2.61,1S552.84,292,550.28,289.75Z" transform="translate(-286.78 -136.93)"/><path d="M528.14,323.28s-5.38-10.9-8.51-12.36-2.13.36-2.13.36Z" transform="translate(-286.78 -136.93)"/><path d="M559,298c-1.82-4.59-6.26-11-7.4-12.6.91-2.94,6-19.34,6-22.92,0-1.95-.44-2.55-1.33-3,0,0-.2-.38-.09-2.12.31-4.37,2-14.86,2.94-20.74a1.86,1.86,0,0,0-.49-1.54,4.84,4.84,0,0,0-3.47-1.41c-1.57,0-2,.86-2.09,1.23-.56,1.91-1.67,1.88-2,1.51a2.57,2.57,0,0,1-.34-2c.56-3.55,4.21-22,5-25.33a2.84,2.84,0,0,0-.51-2.55,4.82,4.82,0,0,0-3.7-1.55c-1.45,0-2.46.56-2.71,1.48-.83,3-2.41,4.78-4.25,4.78a3.15,3.15,0,0,1-2.45-1.31c-1.22-1.49-1.57-3.86-1-6.49,1.92-8.76,3.4-16.47,3.7-18.43a2,2,0,0,0-.48-1.59,5.26,5.26,0,0,0-3.72-1.4,2.48,2.48,0,0,0-2.52,1.24c-2.61,6.33-6.1,10.1-9.36,10.1a4.35,4.35,0,0,1-3.33-1.66c-1.75-2.06-2.42-5.59-1.8-9.44.91-5.55,1.72-8.92,2.21-10.94.2-.78.34-1.36.4-1.74a1.56,1.56,0,0,0-.39-1.28c-.88-1.07-3.3-1.85-4.88-1.85s-1.89.69-2,1.09c-2,6.08-5.74,8.24-8.31,8.24a4.29,4.29,0,0,1-3.36-1.59c-1.51-1.79-2-4.81-1.32-8.51.31-1.77,1-9.32,1.29-12.16l.08-.9a1.45,1.45,0,0,0-.39-1.12c-1-1.06-3.53-1.13-4.29-1.13-2.54,0-3,.67-3.16.89s-.46.71-.84,1.35c-2.16-1-2.84-.45-4.19,2a2.57,2.57,0,0,1-.75.92c-3.27,2.88-10.27.66-11.57-3.9a39.59,39.59,0,0,1-1-8.67c-.13-2.43-1.65-3.21-3.6-3.31a3.71,3.71,0,0,0-2.68,1.29c-1.39,1.75-2.56,3.71-3.78,5.6a7.84,7.84,0,0,1-7.6,3.81s-4.24-.74-4.94-1.59a14.55,14.55,0,0,1-2.35-4.73c-.41-1.68-.88-3.36-1.45-5a3.85,3.85,0,0,0-4.88-1.85,1.35,1.35,0,0,0-.59.55,19,19,0,0,0-1.28,2c-.93,1.92-1.85,3.8-2.71,5.77a7.33,7.33,0,0,1-9.06,3.5,8.83,8.83,0,0,1-5.19-5.17,44.41,44.41,0,0,0-2.07-4.41c-1.32-2.43-1.58-2.47-4.29-2.07a2.68,2.68,0,0,0-2.27,1.93,34.74,34.74,0,0,0-1.38,5.49,9.13,9.13,0,0,1-2.19,4.63,7.42,7.42,0,0,1-5.88,2.3,8.11,8.11,0,0,1-2.37-.38c-1.84-.59-3-2.05-4.13-3.45s-2.28-3-3.37-4.64A3.22,3.22,0,0,0,399,141.8c-1.52.42-2.24,1.07-2.3,2.65s-.06,3.22-.19,4.77a20.27,20.27,0,0,1-.43,3.51,6.85,6.85,0,0,1-3.75,4.16,8,8,0,0,1-2.6,1.05,6.41,6.41,0,0,1-2.39,0,7,7,0,0,1-3.46-1.69c-1-.81-2-1.73-3-2.67-.85-.77-1.61-1.66-2.46-2.44-1.66-1.52-2.38-1.56-4.46-.64a2.4,2.4,0,0,0-1.52,2.17,6.36,6.36,0,0,0,0,1.63c.21,2,.47,4,.64,6a5.91,5.91,0,0,1-.8,4,7.91,7.91,0,0,1-3.43,3.14,6.92,6.92,0,0,1-7.06-.11c-1.18-.69-2.2-1.6-3.36-2.36s-2.43-1.75-3.62-2.55a2,2,0,0,0-2.6,0,13.69,13.69,0,0,1-1.61,1,1.38,1.38,0,0,0-.62,1.46c.14.94.27,1.84.51,2.8.43,1.78,1,3.67,1.39,5.5a9.65,9.65,0,0,1,.19,2.67,6.59,6.59,0,0,1-3,4.74,6.73,6.73,0,0,1-5.54,1.48,13.33,13.33,0,0,1-5.48-2.21,42.09,42.09,0,0,0-4-2,2.25,2.25,0,0,0-2.47.29,15.84,15.84,0,0,0-1.71,1.8,1.12,1.12,0,0,0-.12,1.06,11.79,11.79,0,0,0,.75,2.46c.74,1.67,1.6,3.28,2.39,4.95a7.08,7.08,0,0,1-.83,7.78A6.92,6.92,0,0,1,327.2,199a12.16,12.16,0,0,1-5.34-.81,53.2,53.2,0,0,0-5.42-1.72,2,2,0,0,0-2.19.7,4.92,4.92,0,0,1-1.07,1.22,1.93,1.93,0,0,0-.3,2.42,14.22,14.22,0,0,0,1.38,2.43,44.9,44.9,0,0,1,3.28,4.78,7.31,7.31,0,0,1,.13,6.73c-1.78,3.39-5.38,4.79-9.23,3.84a26.48,26.48,0,0,0-6.48-.79,3.73,3.73,0,0,0-1.7.81c-.39.64-.78,1.27-1.16,1.92a1.18,1.18,0,0,0,0,1.34,23,23,0,0,0,3.79,4.67,26,26,0,0,1,2.59,2.87,6.2,6.2,0,0,1,1.23,3.21,12.73,12.73,0,0,1-1.57,6l12.93-.05c1.2-2.51,2.29-5.05,3.6-7.56,1.45-2.74,3.06-5.38,4.66-8.09,1.22-2.07,2.49-4.13,3.87-6.1a66.24,66.24,0,0,1,5.15-6.62,34.61,34.61,0,0,1,5.8-5.15,17.23,17.23,0,0,1,7.27-2.64,50,50,0,0,1,6.27-.51,20.53,20.53,0,0,1,8.52,1.57,26.37,26.37,0,0,1,8.71,6.15,73.58,73.58,0,0,1,7,8.39,7.29,7.29,0,0,0,2.38,2.46c3.57-2.23,6.92-4.4,10.34-6.56a81.18,81.18,0,0,1,14.14-6.84c1.39-.54,2.74-1.1,4.15-1.67.53-.16.75-.47.5-1.06-.4-1.07-.74-2.11-1.13-3.17-.55-1.46-1.13-3-1.62-4.44-.73-2.38-1.48-4.68-2.16-7.06A22.58,22.58,0,0,1,412,168a21.4,21.4,0,0,1,10.89-5.7c15.5-2.92,35.63.25,40.68,1.14-2.71,1.37-5.41,2.44-8.05,3.48l-1.4.56c-6.68,2.65-7.12,3.73-7.58,7-.08.61-.18,1.3-.35,2.12a34,34,0,0,1-2.18,5.34c-2.81,6.09-7.05,15.29-4.49,23,4.45,13.41,21.24,19.4,31,21.78-2.95.24-6.65.59-10.85,1.15-6.26.85-13.84,2.09-21.88,3.38-16.86,2.74-36,5.84-53.95,7.28-25.54,2.07-68.07,2.29-85.16,2.29-6.35,0-10.23,0-10.24,0h-1.7l4.47,6.59,57.66.5-53.55,5.57,7.62,9.79.5,0c.26,0,24.73-2.65,39.19-3.89,9.35-.8,29.43-2.32,42.6-3.3l-1.43.34,0-.11s-1.72.44-4.49,1.2c-1.39.35-2.73.69-3.9,1-1.77.48-4.13,1.18-6.69,2-13.05,3.77-31.38,9.46-41.67,14.42,0,3.16.14,6.3.39,9.4l49.7-6.28L329.5,298c.68,3.25,1.48,6.45,2.43,9.59l46.54-8-40.8,22.9c1.41,3,2.92,5.93,4.57,8.78l56.93-16.1-47.73,29.57c2.09,2.65,4.29,5.21,6.61,7.65l41.12-18.51L370.8,363.91a113.72,113.72,0,0,0,9.77,6.75l23.53-15.84L392.24,377c3.13,1.46,6.3,2.82,9.58,4,2.8-.87,41.69-31.91,41.7-32a3.8,3.8,0,0,1,1.16-2.73c-.2.78-.46,1.71-.69,2.59-1.16,4.39,1.67,11.48,3.93,17.17.68,1.69,1.29,3.24,1.74,4.54a15.8,15.8,0,0,1,.68,5.82c0,1.92-.1,3.72,1.12,5.48,1.82,2.6,3.56,3.8,5.51,3.8a7.62,7.62,0,0,0,1.49-.17,4.48,4.48,0,0,1,.85-.11,2.77,2.77,0,0,1,1.46.57,9.55,9.55,0,0,0,3.27,1.31,8.25,8.25,0,0,0,1.59.14c6.6,0,16.21-6.81,18.7-9.6a53.41,53.41,0,0,1,5.15-4.46c4.19-3.38,9.41-7.61,13-12.23,5.72-7.32,5-18.1,5-18.32a22.35,22.35,0,0,1,1-2.08,78.29,78.29,0,0,0,3.45-7.55,73.79,73.79,0,0,0,2.74-9.66c.91-3.25,4.54-4.16,7.42-1.92,5,4,9.6,13.78,9.65,13.88l1.11,2.39.58-2.57c.13-.58,3-14.33-12.19-28.27-1.3-1.2-3.41-1.39-5.82-1.63-3.31-.32-7-.67-8.9-3.79-2.23-3.72-3-6.92-2-8.77.59-1.16,1.89-1.85,3.85-2,3.3-.31,6.53-.47,9.59-.47,36.19,0,42.33,22.26,42.38,22.49l1.15,4.47.61-4.57C562.14,312.45,562.77,307.46,559,298ZM395.21,204.82a10,10,0,0,1-14.53.59c-4.28-3.89-4.53-9.74-.55-14.22,4.59-4.23,9.83-4,14.5-.43C398.73,195.09,399.16,200.46,395.21,204.82Zm2.22-25.75a7.5,7.5,0,0,1-4.83,3.2,13.34,13.34,0,0,1-4.23.25,15.69,15.69,0,0,0-7.71,1.19,30.91,30.91,0,0,0-4.15,2.72,12.9,12.9,0,0,0-3.85,5.57c-1.75,3.84-6.18,4.89-9.66,3.47a7,7,0,0,1-4.66-5.53,5.87,5.87,0,0,1,0-2.13,7.92,7.92,0,0,1,3.43-5.27,118.94,118.94,0,0,1,13.42-7.8c3.58-1.86,7.24-3.61,10.93-5.37a10.59,10.59,0,0,1,4.68-1.1,7.33,7.33,0,0,1,5.23,2.14A6.8,6.8,0,0,1,397.43,179.07Zm59.42-5.2c1-4.23-2-4.32-4.37-3.78.66-.3,1.41-.61,2.34-1l1.39-.55a76.44,76.44,0,0,0,10.79-5,64,64,0,0,0,9.84-7.22,3.31,3.31,0,0,1,.64.34c-1.13,4.67,0,7.41,1.13,8.91a7.87,7.87,0,0,0,6.43,2.88,11.16,11.16,0,0,0,9.63-5.4c2.51-4.58,5.72-10,6.18-10.7a4.48,4.48,0,0,1,1.79-.24c1.69,0,2.78.39,2.89.3l-.08.89c-.27,2.82-1,10.32-1.27,12-.74,4.23-.13,7.78,1.73,10a6,6,0,0,0,4.72,2.23c4.15,0,8.07-3.71,9.88-9.27a1.37,1.37,0,0,1,.46-.05,7.78,7.78,0,0,1,3.49,1c-.05.35-.18.88-.37,1.62-.49,2-1.32,5.46-2.22,11.06-.73,4.44.07,8.4,2.19,10.9a6.18,6.18,0,0,0,4.7,2.29c4.07,0,8.08-4.08,11-11.16.13-.11,2.61-.17,3.31.75-.25,1.6-1.62,8.85-3.68,18.31-.7,3.17-.2,6.09,1.34,8a5,5,0,0,0,3.86,2c2.7,0,4.94-2.28,5.95-6a1.78,1.78,0,0,1,1-.21,3.12,3.12,0,0,1,2.29.85,1.17,1.17,0,0,1,.18,1c-.8,3.33-4.45,21.88-5,25.45a4.16,4.16,0,0,0,.76,3.46,2.42,2.42,0,0,0,1.9.91c1.08,0,2.5-.81,3.06-2.95a1.12,1.12,0,0,1,.46-.07,2.83,2.83,0,0,1,2.18.87c-1,5.89-2.64,16.45-2.94,20.9-.18,2.43.11,3.37,1.27,3.93a3.09,3.09,0,0,1,.14,1.26c0,2.41-2.85,12.28-4.81,18.82v0l-.1.29c-.38,1.13-2.37,4.88-10.76,1.93-6.85-2.4-10.6-4.66-11.34-7.53,0-2.4-2.46-17.54-12.29-29.32s-26.88-19.86-28.85-20.89C460.51,211.5,448.55,209.53,456.85,173.87Zm-40,103.76c-7.47,1.74-18.55,2.14-18.55,2.14s12.67-9.21,18.24-12.24S438,258.18,438,258.18a80.45,80.45,0,0,1-17.63,2.23,140.65,140.65,0,0,1-20.88-1.07,60.4,60.4,0,0,1,15.13-5.65,56.77,56.77,0,0,1,14.39-1.5s-12.67-2.21-20.59-4.07-14.68-4.2-14.68-4.2,11.33-.07,23.29.85,22.24,2.66,22.24,2.66a65.71,65.71,0,0,1-7.21-4.68,32.42,32.42,0,0,1-5.15-4.65s9.53.35,17.92,1.53a128.11,128.11,0,0,1,15.31,3.12,25.56,25.56,0,0,1-4-4.13,9,9,0,0,1-1.9-3.79,61.34,61.34,0,0,1,17.3,0c9.4,1.37,15,4.69,15,4.7l-8.68-10.18s24,8.47,34.85,19.16c9.82,9.64,12.75,24.37,12.5,25.53a41.48,41.48,0,0,0-4.8-10.83l0-.05a37.55,37.55,0,0,0-10.59-11.28c-19-13.13-41.16-4.33-41.16-4.33S486,255.58,485,264s-18.82,3.52-18.82,3.52S454.68,286,447.54,295.58A178.22,178.22,0,0,1,432,313.52s-.8-5.31,2-13.38a56.14,56.14,0,0,1,6.67-13.32,113.14,113.14,0,0,1-14.54,6.83,132.17,132.17,0,0,1-16,4.85A87.24,87.24,0,0,1,419,284c4.73-5.86,12.59-12.06,12.59-12.06A68.7,68.7,0,0,1,416.89,277.63Zm102.84-10.36a5.88,5.88,0,0,1,0,1.11c-.43,4.14-4.37,7.18-9,6.71s-7.85-4.24-7.41-8.41a7.84,7.84,0,0,1,8.05-6.77c.31,0,.62,0,.94,0s.5.1.77.15A38.55,38.55,0,0,1,519.73,267.27Zm-3.92,39.91c1.82.18,3.46.38,4.25,1.1,10.22,9.39,11.81,18.79,11.86,23.48-1.83-3.36-5.1-8.8-8.71-11.63a7.37,7.37,0,0,0-4.56-1.71,5.71,5.71,0,0,0-3.11,1,11.74,11.74,0,0,1-1-5.65A18,18,0,0,1,515.81,307.18Zm-3.19,1.52s.94,12.77-.57,18a2.46,2.46,0,0,1-.07.29c-.33,1.08-.56,1.89-.72,2.55-.3,1-.64,2-1,2.9-.28.73-.57,1.44-.87,2.11l0,0c-.88,2.06-1.82,3.9-2.49,5.23-.29.54-.48,1-.65,1.31-.37.68-.75,1.37-1.16,2.08-1.73,3-3.87,5.34-6,9.26-4.33,8.17-5.39,15.75-13.14,21.32a29.44,29.44,0,0,0-3,2.75c-2.64,2.94-12.9,10-18.59,8.89a7.84,7.84,0,0,1-2.72-1.11,5.45,5.45,0,0,0-1.88-.7,11.2,11.2,0,0,1-3.86-7.41c-.29-4.53.84-13.86-5.33-28.12-7.93-18.3-2.82-26.42-2.82-26.42s-4.12,5.71-12.85,10.08-13.46,3.72-13.46,3.72,21.78-31,45.34-58.23c6.93-8,15.86-4.62,17.55-3.87,2.42,1.09,8.52,4.16,9.57,7.77,1.32,4.5-2.74,8-2.74,8l8.58-7.14s.42,2-.93,9.33S497,302,501.42,305.64,512.62,308.7,512.62,308.7ZM503.53,290c-1.42,1.05-2.73,1-2.12-2.84,1.32-8.42-.53-8.87-2.44-7-2.55,2.55-3.29,1.8-3.65-.11-.87-4.69-8.49-7.56-10.6-8.27,1.12-.24,4.38-1.27,5.81-6,1.75-5.68-3-12.06-3-12.06s12.73-2.76,23,4.36a9.54,9.54,0,0,0-9.06,8.34c-.52,5.16,3.52,9.82,9,10.4a10.73,10.73,0,0,0,1.12.05,9.71,9.71,0,0,0,9.62-7.22,25.28,25.28,0,0,1,2.27,5.11l-.06,0s.1.31.24.69h0c.21.59.54,1.43.84,2.07,1.58,3.3-1.65,3.74-5.51,5.09S504.92,289,503.53,290Zm40,.24a114.5,114.5,0,0,0-21-7.24l7.76-1.73s1.58,1.59,9.7,3.94,7.77,1.16,9.84,1.6a4.38,4.38,0,0,1,.86.26c1,1.46,3,4.39,4.66,7.39l3.2,8.56S554.42,295.27,543.5,290.23Z" transform="translate(-286.78 -136.93)"/></svg>