<svg id="Ebene_1" data-name="Ebene 1" xmlns="http://www.w3.org/2000/svg" viewBox="0 0 766.82 235.35"><defs><style>.cls-1{fill:#231f20;}</style></defs><title>RK_Logo_classic (1)</title><path class="cls-1" d="M718,186.66c.94-8.64,11.61-10,13.18-9s3.72,4.73,9.55,1.71,8.81-2,11.65,3.19,6.75,5,8.46,5.26,3.33-.32,4.61,6.13.91,7.79,8.83,8.31,7.88,1.11,8.3,5.71,1.83,7.64,7.19,8.79c3.23.69,2.57.8,1.93,6s-2.36,14.18,1.16,16.89,3.95,3.25,3.65,6.23-.66,6.72-.87,9.66,1.95.7,1.38,4.88-.92,8-2.59,7.75-4.95.08-6.18-4.9c-5-20.09-11.34-43.7-61.61-63.27C717.73,196.54,718,186.66,718,186.66Z" transform="translate(-41.29 -146.8)"/><path class="cls-1" d="M725.07,295.67c28.35-23.51,22.22-4.45,20.89.59-2.48,9.4,4.23,9.33,5.11,6.44,2.18-7.22,14.34,1,5.89,18.58,0,0-11.39,24.19-14,28.24s-7.11,1.52-6.3-2.3,1.26-6,1.65-7.62a1.71,1.71,0,0,0-3.33-.72c-.91,2.32-4.12,11.23-6.68,14.64s-8.58,6.4-10.39-4.22-5.14-21.64-7.54-29.34C709.23,316.39,706.75,310.84,725.07,295.67Z" transform="translate(-41.29 -146.8)"/><path class="cls-1" d="M765.47,260.12l3.08-1.58a4.09,4.09,0,0,0-1.08-1,3.95,3.95,0,0,0-4.15,6.72,4.28,4.28,0,0,0,1.06.45,4,4,0,0,0,4.37-1.75,3.49,3.49,0,0,0,.52-1.36Z" transform="translate(-41.29 -146.8)"/><path class="cls-1" d="M694.93,312.31S709,296.45,714.8,289.22s13.52-19.4,25.35-19.7c7.93-.21,6.61,8.27,3.34,9.37-4.56,1.53-27,7.64-34.33,23.8C705,311.83,694.93,312.31,694.93,312.31Z" transform="translate(-41.29 -146.8)"/><path class="cls-1" d="M795.14,278.9l2.12,3.55,2.27.87s.47-1.64-1.77-3.57S795.14,278.9,795.14,278.9Z" transform="translate(-41.29 -146.8)"/><path class="cls-1" d="M769.25,298.48l9.25,10.44s-4.67-9.48-7.39-10.74S769.25,298.48,769.25,298.48Z" transform="translate(-41.29 -146.8)"/><path class="cls-1" d="M805.38,286.91c-1.58-4-5.45-9.56-6.44-11,.8-2.56,5.18-16.83,5.21-19.94,0-1.69-.39-2.22-1.16-2.59,0,0-.18-.32-.08-1.84.26-3.8,1.71-12.93,2.56-18a1.63,1.63,0,0,0-.43-1.35,4.26,4.26,0,0,0-3-1.22c-1.37,0-1.73.75-1.83,1.07-.48,1.66-1.45,1.63-1.72,1.32a2.29,2.29,0,0,1-.3-1.75c.49-3.09,3.67-19.15,4.35-22a2.49,2.49,0,0,0-.45-2.22,4.19,4.19,0,0,0-3.22-1.34c-1.26,0-2.14.48-2.36,1.28-.72,2.6-2.09,4.16-3.69,4.16a2.76,2.76,0,0,1-2.14-1.14,6.7,6.7,0,0,1-.86-5.65c1.67-7.62,3-14.32,3.22-16a1.71,1.71,0,0,0-.42-1.38,4.57,4.57,0,0,0-3.23-1.21c-1.12,0-1.91.38-2.19,1.08-2.27,5.5-5.31,8.78-8.14,8.78a3.81,3.81,0,0,1-2.91-1.44c-1.51-1.79-2.1-4.87-1.55-8.21.78-4.83,1.49-7.76,1.91-9.52.18-.68.3-1.18.36-1.51a1.37,1.37,0,0,0-.35-1.12,6.56,6.56,0,0,0-4.24-1.61c-1.27,0-1.65.6-1.77,1-1.78,5.28-5,7.16-7.23,7.16a3.73,3.73,0,0,1-2.92-1.38c-1.31-1.56-1.71-4.19-1.15-7.41.27-1.54.89-8.1,1.12-10.58l.07-.78a1.22,1.22,0,0,0-.34-1c-.83-.92-3.07-1-3.73-1-2.21,0-2.62.59-2.75.78s-.4.62-.73,1.17c-1.89-.86-2.47-.38-3.65,1.77a2.2,2.2,0,0,1-.65.8c-2.84,2.51-8.93.58-10.06-3.39a34.24,34.24,0,0,1-.86-7.54c-.11-2.11-1.44-2.79-3.13-2.88a3.27,3.27,0,0,0-2.33,1.13,58.46,58.46,0,0,0-3.29,4.87,6.81,6.81,0,0,1-6.61,3.31s-3.7-.64-4.3-1.39a12.7,12.7,0,0,1-2.05-4.1c-.35-1.47-.76-2.93-1.25-4.37a3.36,3.36,0,0,0-4.25-1.6,1.15,1.15,0,0,0-.51.47,16.77,16.77,0,0,0-1.12,1.72c-.81,1.68-1.61,3.32-2.36,5a6.38,6.38,0,0,1-7.88,3,7.71,7.71,0,0,1-4.51-4.49,42.18,42.18,0,0,0-1.79-3.85c-1.16-2.11-1.39-2.14-3.74-1.79a2.3,2.3,0,0,0-2,1.68,28,28,0,0,0-1.21,4.77,7.92,7.92,0,0,1-1.9,4,6.5,6.5,0,0,1-5.12,2,6.73,6.73,0,0,1-2.06-.33c-1.6-.51-2.58-1.78-3.6-3s-2-2.63-2.93-4a2.77,2.77,0,0,0-3.57-1.26c-1.33.36-2,.92-2,2.3s-.06,2.8-.16,4.15a16.85,16.85,0,0,1-.38,3,6,6,0,0,1-3.26,3.63,7.21,7.21,0,0,1-2.27.91,5.54,5.54,0,0,1-2.07,0,6.17,6.17,0,0,1-3-1.47c-.89-.71-1.74-1.51-2.59-2.32s-1.4-1.45-2.14-2.13c-1.44-1.32-2.07-1.36-3.88-.56a2.08,2.08,0,0,0-1.32,1.89,5.64,5.64,0,0,0,0,1.42c.19,1.75.4,3.5.55,5.24a5.11,5.11,0,0,1-.7,3.44,6.84,6.84,0,0,1-3,2.73,6,6,0,0,1-6.15-.09c-1-.61-1.91-1.4-2.92-2.06s-2.12-1.52-3.15-2.21a1.71,1.71,0,0,0-2.26,0,11.92,11.92,0,0,1-1.41.88,1.25,1.25,0,0,0-.54,1.28c.13.81.24,1.6.45,2.43.37,1.54.85,3.19,1.21,4.78a8.36,8.36,0,0,1,.17,2.33,5.74,5.74,0,0,1-2.65,4.12,5.86,5.86,0,0,1-4.82,1.29,11.57,11.57,0,0,1-4.77-1.93,33.74,33.74,0,0,0-3.47-1.69,2,2,0,0,0-2.15.25,12.79,12.79,0,0,0-1.49,1.57,1,1,0,0,0-.1.92,10,10,0,0,0,.66,2.14c.64,1.45,1.38,2.85,2.07,4.3a6.17,6.17,0,0,1-.72,6.77,6,6,0,0,1-4.23,2.41,10.78,10.78,0,0,1-4.64-.71,47.82,47.82,0,0,0-4.72-1.5,1.74,1.74,0,0,0-1.91.61,4.36,4.36,0,0,1-.92,1.06,1.67,1.67,0,0,0-.26,2.11,12,12,0,0,0,1.19,2.12,38.68,38.68,0,0,1,2.85,4.16,6.31,6.31,0,0,1,.12,5.85,6.83,6.83,0,0,1-8,3.34,23,23,0,0,0-5.63-.69,3.23,3.23,0,0,0-1.49.71c-.33.55-.68,1.1-1,1.66a1,1,0,0,0,0,1.17,19.83,19.83,0,0,0,3.3,4.06,24,24,0,0,1,2.25,2.49,5.41,5.41,0,0,1,1.07,2.8,11,11,0,0,1-1.37,5.23l11.25,0c1-2.19,2-4.4,3.14-6.58,1.26-2.38,2.66-4.68,4-7,1.07-1.8,2.17-3.6,3.37-5.31a59.92,59.92,0,0,1,4.48-5.76,30.1,30.1,0,0,1,5-4.47,15,15,0,0,1,6.33-2.3,44.67,44.67,0,0,1,5.46-.45,18,18,0,0,1,7.4,1.37,23.09,23.09,0,0,1,7.59,5.35,65.9,65.9,0,0,1,6.08,7.3,6.28,6.28,0,0,0,2.08,2.14c3.1-1.94,6-3.82,9-5.7a69.77,69.77,0,0,1,12.3-6c1.21-.46,2.38-1,3.61-1.45.46-.14.66-.41.44-.92-.35-.93-.65-1.84-1-2.76-.47-1.27-1-2.57-1.4-3.86-.65-2.07-1.29-4.08-1.88-6.14a19.7,19.7,0,0,1,5.69-18.89,18.76,18.76,0,0,1,9.48-5c13.47-2.53,31,.23,35.38,1-2.36,1.19-4.71,2.13-7,3l-1.22.48c-5.81,2.31-6.19,3.25-6.59,6.13-.07.53-.16,1.13-.31,1.84a29.67,29.67,0,0,1-1.89,4.65c-2.44,5.29-6.14,13.3-3.91,20,3.87,11.67,18.48,16.88,27,18.95-2.57.21-5.78.52-9.44,1-5.45.73-12.05,1.8-19,2.94-14.66,2.37-31.28,5.07-46.93,6.33-22.22,1.8-59.21,2-74.08,2-5.53,0-8.91,0-8.92,0h-1.47l3.89,5.74,50.16.43L576,248.2l6.63,8.51.44,0c.21,0,21.51-2.3,34.09-3.38,8.13-.7,25.61-2,37.06-2.87-3,.7-6.15,1.45-8.58,2.12-6.79,1.87-23.14,7.18-23.3,7.23l-2.83.92,2.92.6c.31,0,31.94,6.86,47,40.2s-1.71,59.28-1.88,59.54l-1.18,1.82,2.08-.64c.56-.17,36.47-30.87,36.48-31a3.34,3.34,0,0,1,1-2.39l-.59,2.26c-1,3.82,1.44,10,3.41,14.94.59,1.46,1.12,2.82,1.51,3.94a13.52,13.52,0,0,1,.59,5.07c0,1.67-.09,3.25,1,4.77,1.59,2.27,3.1,3.31,4.8,3.31a7.25,7.25,0,0,0,1.29-.15,4.13,4.13,0,0,1,.75-.1,2.46,2.46,0,0,1,1.26.49,8.21,8.21,0,0,0,2.85,1.15,7.69,7.69,0,0,0,1.38.13c5.74,0,14.1-5.94,16.27-8.36a46.26,46.26,0,0,1,4.48-3.88c3.64-2.95,8.19-6.62,11.34-10.64,5-6.37,4.38-15.75,4.34-15.94a19.63,19.63,0,0,1,.87-1.81,69.62,69.62,0,0,0,3-6.56,66.89,66.89,0,0,0,2.39-8.41c.79-2.83,4-3.63,6.44-1.66,4.35,3.42,8.36,12,8.41,12.07l1,2.08.51-2.24c.11-.51,2.61-12.47-10.61-24.6-1.13-1-3-1.21-5.07-1.41-2.87-.27-6.12-.59-7.74-3.3-1.93-3.24-2.56-6-1.75-7.63.52-1,1.64-1.61,3.36-1.77,2.87-.26,5.68-.41,8.33-.41,31.49,0,36.83,19.37,36.88,19.57l1,3.88.53-4C808.09,299.5,808.63,295.15,805.38,286.91ZM662.86,205.86a8.73,8.73,0,0,1-12.65.52c-3.72-3.38-3.93-8.48-.48-12.37,4-3.69,8.56-3.47,12.62-.38C665.92,197.4,666.29,202.07,662.86,205.86Zm1.93-22.4a6.52,6.52,0,0,1-4.2,2.79,11.65,11.65,0,0,1-3.68.21,13.66,13.66,0,0,0-6.71,1,27.79,27.79,0,0,0-3.62,2.36,11.23,11.23,0,0,0-3.34,4.85,6.42,6.42,0,0,1-8.41,3,6.14,6.14,0,0,1-4.05-4.81,5.23,5.23,0,0,1,0-1.85,6.92,6.92,0,0,1,3-4.59,103.74,103.74,0,0,1,11.68-6.78c3.11-1.63,6.3-3.14,9.51-4.68a9.15,9.15,0,0,1,4.07-1,6.37,6.37,0,0,1,4.55,1.86A5.92,5.92,0,0,1,664.79,183.46Zm51.69-4.52c.85-3.68-1.7-3.76-3.8-3.29.58-.26,1.23-.53,2-.86l1.22-.47a67.31,67.31,0,0,0,9.38-4.31,55.88,55.88,0,0,0,8.56-6.29,2.7,2.7,0,0,1,.55.3c-1,4.06,0,6.44,1,7.75a6.84,6.84,0,0,0,5.6,2.5,9.69,9.69,0,0,0,8.37-4.69c2.19-4,5-8.68,5.38-9.31a4.19,4.19,0,0,1,1.56-.2c1.48,0,2.42.33,2.52.25l-.07.78c-.24,2.45-.85,9-1.11,10.45-.64,3.68-.11,6.77,1.5,8.68a5.27,5.27,0,0,0,4.11,1.94c3.61,0,7-3.23,8.6-8.06a.87.87,0,0,1,.4-.06,6.82,6.82,0,0,1,3,.9c-.06.31-.17.77-.33,1.41-.42,1.78-1.14,4.75-1.93,9.63-.64,3.86.06,7.31,1.91,9.48a5.36,5.36,0,0,0,4.09,2c3.54,0,7-3.56,9.56-9.71.11-.1,2.27-.16,2.88.64-.22,1.4-1.41,7.71-3.2,15.93a8.26,8.26,0,0,0,1.16,7,4.3,4.3,0,0,0,3.36,1.72c2.35,0,4.3-2,5.17-5.25a1.48,1.48,0,0,1,.88-.19,2.74,2.74,0,0,1,2,.75,1,1,0,0,1,.15.89c-.7,2.9-3.87,19-4.37,22.15a3.66,3.66,0,0,0,.66,3,2.1,2.1,0,0,0,1.66.79c.94,0,2.17-.7,2.66-2.56a1,1,0,0,1,.41-.06,2.49,2.49,0,0,1,1.89.75c-.84,5.13-2.3,14.32-2.57,18.19-.15,2.11.11,2.93,1.11,3.41a2.59,2.59,0,0,1,.12,1.11c0,2.08-2.48,10.67-4.18,16.37h0l-.09.26c-.33,1-2.06,4.24-9.36,1.68-6-2.09-9.22-4.05-9.86-6.56,0-2.08-2.14-15.26-10.69-25.51S745,225,743.3,224.08C719.67,211.67,709.26,210,716.48,178.94ZM681.72,269.2a104.74,104.74,0,0,1-16.14,1.87s11-8,15.87-10.65,18.65-8.13,18.65-8.13a70,70,0,0,1-15.33,1.93,120.7,120.7,0,0,1-18.17-.93,52.44,52.44,0,0,1,13.16-4.91,49.06,49.06,0,0,1,12.53-1.3s-11-1.94-17.93-3.55-12.76-3.65-12.76-3.65,9.85-.06,20.25.73,19.36,2.32,19.36,2.32a58.94,58.94,0,0,1-6.28-4.06,27.94,27.94,0,0,1-4.48-4.05s8.29.3,15.6,1.33a111.79,111.79,0,0,1,13.31,2.72,22.6,22.6,0,0,1-3.49-3.6,8,8,0,0,1-1.65-3.3,53.45,53.45,0,0,1,15,0,38.16,38.16,0,0,1,13,4.09l-7.55-8.85s20.86,7.36,30.33,16.66c8.54,8.39,11.09,21.21,10.87,22.22a36.05,36.05,0,0,0-4.18-9.43l0,0a32.62,32.62,0,0,0-9.21-9.82C746,235.37,726.7,243,726.7,243s15.12,7,14.23,14.33-16.37,3.06-16.37,3.06-10,16-16.18,24.41a155.34,155.34,0,0,1-13.51,15.6s-.69-4.62,1.78-11.64a48.43,48.43,0,0,1,5.8-11.59,99.92,99.92,0,0,1-12.64,5.95,115.14,115.14,0,0,1-13.95,4.21,76.33,76.33,0,0,1,7.69-12.59,83.07,83.07,0,0,1,11-10.48A60,60,0,0,1,681.72,269.2Zm89.47-8a7.19,7.19,0,0,1-14.26-1.48,6.82,6.82,0,0,1,7-5.89c.27,0,.54,0,.82,0s.44.1.67.14a33.43,33.43,0,0,1,5.77,6.22A5.24,5.24,0,0,1,771.19,261.16Zm-3.41,33.75c1.58.15,3,.34,3.69,1,8.9,8.17,10.28,16.34,10.32,20.43-1.58-2.93-4.43-7.66-7.58-10.12a6.41,6.41,0,0,0-4-1.48,4.88,4.88,0,0,0-2.7.84,10.19,10.19,0,0,1-.87-4.93A15.58,15.58,0,0,1,767.78,294.91ZM765,296.24s.83,11.11-.49,15.67a1.25,1.25,0,0,1-.07.26c-.28.94-.48,1.64-.63,2.22-.25.84-.54,1.7-.85,2.52q-.36.94-.75,1.83a.06.06,0,0,0,0,0c-.78,1.79-1.59,3.39-2.17,4.55-.25.47-.43.82-.57,1.13-.32.59-.64,1.21-1,1.82-1.51,2.61-3.38,4.64-5.19,8.05-3.78,7.11-4.69,13.7-11.44,18.55h0a25.92,25.92,0,0,0-2.61,2.4C736.93,357.84,728,364,723.05,363a6.58,6.58,0,0,1-2.35-.95,4.91,4.91,0,0,0-1.64-.62A9.69,9.69,0,0,1,715.7,355c-.26-3.95.73-12.06-4.64-24.47-6.89-15.92-2.45-23-2.45-23a32.51,32.51,0,0,1-11.19,8.77c-7.61,3.81-11.69,3.23-11.69,3.23s18.93-27,39.43-50.65c6-7,13.8-4,15.27-3.37,2.11,1,7.42,3.62,8.33,6.75,1.14,3.92-2.39,7-2.39,7l7.47-6.21s.37,1.76-.81,8.11-1.59,9.29,2.23,12.42S765,296.24,765,296.24ZM757.09,280c-1.23.91-2.37.84-1.84-2.46,1.15-7.34-.47-7.73-2.12-6.06-2.22,2.22-2.87,1.55-3.19-.1-.75-4.08-7.37-6.58-9.21-7.2,1-.2,3.81-1.1,5.06-5.17,1.52-5-2.59-10.51-2.59-10.51s11.08-2.4,20,3.8a8.3,8.3,0,0,0-7.87,7.26,8.49,8.49,0,0,0,7.84,9c.33,0,.65.05,1,.05a8.43,8.43,0,0,0,8.36-6.29,22.37,22.37,0,0,1,2,4.46l0,0s.08.27.2.59l0,0h0c.18.51.46,1.24.72,1.79,1.38,2.88-1.43,3.26-4.79,4.43A109,109,0,0,0,757.09,280Zm34.78.21a100.1,100.1,0,0,0-18.32-6.3l6.76-1.5s1.37,1.38,8.43,3.42,6.76,1,8.56,1.39a4.17,4.17,0,0,1,.75.23c.89,1.28,2.61,3.82,4.06,6.43l2.78,7.44S801.37,284.55,791.87,280.17Z" transform="translate(-41.29 -146.8)"/><path class="cls-1" d="M52,294.45H67.13l-.91,4.32a16.7,16.7,0,0,1,12.57-5.12,16.24,16.24,0,0,1,5.23.8L80.7,310.23a15,15,0,0,0-7.34-1.71,17.85,17.85,0,0,0-10,3.32l-6.94,32.87H41.29Z" transform="translate(-41.29 -146.8)"/><path class="cls-1" d="M117,341.7a19.19,19.19,0,0,1-11.76,3.82c-11.56,0-20.41-10.56-20.41-22.22,0-16.58,11.56-29.65,28.45-29.65,4.62,0,9,1.2,12,3.82l.71-3h15l-10.65,50.26H116.59Zm1.61-13.37L122.22,311a11.45,11.45,0,0,0-8.75-3.52A13.29,13.29,0,0,0,100,321.29c0,6.64,3.92,10.36,9.45,10.36A14.63,14.63,0,0,0,118.6,328.33Z" transform="translate(-41.29 -146.8)"/><path class="cls-1" d="M174.89,341.7a19.17,19.17,0,0,1-11.76,3.82c-11.56,0-20.4-10.56-20.4-22.22,0-16.58,11.56-29.65,28.44-29.65,4.63,0,8.85,1.1,11.87,3.72l5.12-24h15.18l-15.18,71.37H174.49Zm1.61-13.37L180.12,311c-2.21-2.62-5.53-3.52-8.74-3.52a13.3,13.3,0,0,0-13.48,13.77c0,6.64,3.93,10.36,9.45,10.36A14.61,14.61,0,0,0,176.5,328.33Z" transform="translate(-41.29 -146.8)"/><path class="cls-1" d="M219.13,319.58l-5.33,25.13H198.62l15.18-71.37H229l-9.35,44,20.61-22.92h18.09l-23.12,25.63,13.57,24.63H232.9Z" transform="translate(-41.29 -146.8)"/><path class="cls-1" d="M276.43,345.52c-15.28,0-23.83-11.36-23.83-23.63,0-16,11.66-28.24,28.65-28.24,15.28,0,23.83,11.26,23.83,23.52C305.08,333.15,293.42,345.52,276.43,345.52Zm1.3-14.18c7,0,12.07-5.52,12.07-12.86,0-6.64-4.33-10.66-9.85-10.66-7,0-12.07,5.43-12.07,12.77C267.88,327.22,272.2,331.34,277.73,331.34Z" transform="translate(-41.29 -146.8)"/><path class="cls-1" d="M373.74,319.38a24.92,24.92,0,0,0,.5-4.42c0-4.42-1.91-7.44-6.33-7.44-2.42,0-7.14,2-9.65,6.23a27.9,27.9,0,0,1-.71,4.93l-5.53,26H336.84l5.43-25.33a24.92,24.92,0,0,0,.5-4.42c0-4.42-1.9-7.44-6.33-7.44-2.41,0-6.63,1.91-9.05,5.33l-6.83,31.86H305.38L316,294.45h15l-.7,3.72a16.33,16.33,0,0,1,11.36-4.52,15.61,15.61,0,0,1,13.17,6.53,23.49,23.49,0,0,1,16.28-6.53c12.17,0,18.6,7.64,18.6,18.39a31.26,31.26,0,0,1-.7,6.64l-5.53,26H368.31Z" transform="translate(-41.29 -146.8)"/><path class="cls-1" d="M408.22,273.34H423.4l-4.93,23.12a18.68,18.68,0,0,1,10.06-2.81c12.16,0,20.7,10.55,20.7,22.21,0,16.59-10.35,29.66-28.44,29.66-4.73,0-9-1.11-12-3.72l-.6,2.91H393Zm7.14,37.6-3.62,17.19c2.21,2.61,5.53,3.52,8.85,3.52a13.3,13.3,0,0,0,13.47-13.78c0-6.63-3.93-10.35-9.45-10.35A14.41,14.41,0,0,0,415.36,310.94Z" transform="translate(-41.29 -146.8)"/><path class="cls-1" d="M462.81,294.45h15.28l-10.66,50.26H452.15Zm2.21-7.14a9.27,9.27,0,0,1-1.21-4.72c0-6.13,4.12-10,10.36-10,4.22,0,8.14,2.71,8.14,7.54a9.72,9.72,0,0,1-3.12,7.23Z" transform="translate(-41.29 -146.8)"/><path class="cls-1" d="M490,294.45h15l-.71,4c3.42-3.11,7.64-4.82,13.37-4.82,10.76,0,16.79,8.54,16.79,18.29a23.32,23.32,0,0,1-.6,5.23L528,344.71H512.77l5.53-26.23a16.33,16.33,0,0,0,.4-3.72c0-4.22-1.91-7.24-7.34-7.24-3.32,0-6.94,1.51-10.05,5l-6.84,32.16H479.29Z" transform="translate(-41.29 -146.8)"/><path class="cls-1" d="M570.07,341.7a19.19,19.19,0,0,1-11.76,3.82c-11.56,0-20.41-10.56-20.41-22.22,0-16.58,11.56-29.65,28.45-29.65,4.62,0,8.94,1.2,12,3.82l.7-3h15l-10.65,50.26H569.67Zm1.61-13.37L575.29,311a11.41,11.41,0,0,0-8.74-3.52,13.29,13.29,0,0,0-13.47,13.77c0,6.64,3.92,10.36,9.45,10.36A14.63,14.63,0,0,0,571.68,328.33Z" transform="translate(-41.29 -146.8)"/><path class="cls-1" d="M600.53,294.45h10.66l1.7-7.54,16.69-7.54-3.22,15.08h14.28l-3,13.27H623.55l-3.62,17.19a9.66,9.66,0,0,0-.3,2.21c0,2.62,1.51,3.72,4.82,3.72h8.25l-2.92,13.87H618.42c-9.14,0-14.47-4.82-14.47-13.77a27.26,27.26,0,0,1,.7-6l3.72-17.19h-7.84Z" transform="translate(-41.29 -146.8)"/><path class="cls-1" d="M156.16,374.7l1.33-.81a3.55,3.55,0,0,0,3.31,2c1.69,0,3-.85,3-2.23s-.74-2-2.69-2.72l-1.25-.43c-2.45-.87-3.13-2.42-3.13-3.86,0-1.85,1.69-3.35,4.1-3.35a4.05,4.05,0,0,1,3.86,2.5l-1.33.58a2.63,2.63,0,0,0-2.58-1.64c-1.33,0-2.45.71-2.45,1.93,0,1.06.41,1.91,2.26,2.56l1.33.46c2.28.82,3.45,2.07,3.45,3.94s-1.71,3.7-4.7,3.7A4.92,4.92,0,0,1,156.16,374.7Z" transform="translate(-41.29 -146.8)"/><path class="cls-1" d="M170.45,370.36a6.86,6.86,0,0,1,6.9-7,7.38,7.38,0,0,1,5.2,2l-1,1.11a6,6,0,0,0-4.22-1.69,5.58,5.58,0,0,0,0,11.15,6,6,0,0,0,4.22-1.69l1,1.12a7.42,7.42,0,0,1-5.2,2A6.86,6.86,0,0,1,170.45,370.36Z" transform="translate(-41.29 -146.8)"/><path class="cls-1" d="M188.55,357.85h1.55v7.67a5.33,5.33,0,0,1,4.68-2.18c2.85,0,5,2,5,5.22v8.59H198.2v-8.37c0-2.58-1.55-4-3.83-4a4.21,4.21,0,0,0-4.27,3.35v9h-1.55Z" transform="translate(-41.29 -146.8)"/><path class="cls-1" d="M206.85,363.56h1.55v2a5.31,5.31,0,0,1,4.67-2.18c2.85,0,5,2,5,5.22v8.59h-1.55v-8.37c0-2.58-1.55-4-3.83-4a4.19,4.19,0,0,0-4.26,3.35v9h-1.55Z" transform="translate(-41.29 -146.8)"/><path class="cls-1" d="M224,370.36a6.83,6.83,0,0,1,6.63-7c3.56,0,6.34,2.26,6.45,7H225.63a5.35,5.35,0,0,0,5.3,5.55,6,6,0,0,0,4.24-1.66l1,1.09a7.48,7.48,0,0,1-5.21,2A6.84,6.84,0,0,1,224,370.36Zm1.72-1.36h9.64a4.52,4.52,0,0,0-4.78-4.22A5,5,0,0,0,225.74,369Z" transform="translate(-41.29 -146.8)"/><path class="cls-1" d="M243.24,357.85h1.55v19.3h-1.55Z" transform="translate(-41.29 -146.8)"/><path class="cls-1" d="M252.18,357.85h1.55v19.3h-1.55Z" transform="translate(-41.29 -146.8)"/><path class="cls-1" d="M260,370.36a6.82,6.82,0,0,1,6.63-7c3.56,0,6.33,2.26,6.44,7H261.61a5.35,5.35,0,0,0,5.3,5.55,6,6,0,0,0,4.24-1.66l1,1.09a7.51,7.51,0,0,1-5.22,2A6.84,6.84,0,0,1,260,370.36Zm1.71-1.36h9.65a4.52,4.52,0,0,0-4.78-4.22A5,5,0,0,0,261.72,369Z" transform="translate(-41.29 -146.8)"/><path class="cls-1" d="M279.23,363.56h1.54v2.07a4.81,4.81,0,0,1,4.08-2.15,5.47,5.47,0,0,1,.9.08v1.61a4.35,4.35,0,0,0-1.06-.14,4.11,4.11,0,0,0-3.92,2.83v9.29h-1.54Z" transform="translate(-41.29 -146.8)"/><path class="cls-1" d="M309.94,357.85h1.55v19.3h-1.55Z" transform="translate(-41.29 -146.8)"/><path class="cls-1" d="M317.77,370.36a6.82,6.82,0,0,1,6.63-7c3.56,0,6.33,2.26,6.44,7H319.37a5.35,5.35,0,0,0,5.3,5.55,6,6,0,0,0,4.24-1.66l1,1.09a7.51,7.51,0,0,1-5.22,2A6.84,6.84,0,0,1,317.77,370.36Zm1.71-1.36h9.65a4.53,4.53,0,0,0-4.79-4.22A5,5,0,0,0,319.48,369Z" transform="translate(-41.29 -146.8)"/><path class="cls-1" d="M336.38,359a1.36,1.36,0,0,1,2.72,0,1.34,1.34,0,0,1-.6,1.11H337A1.36,1.36,0,0,1,336.38,359Zm.58,4.56h1.54v13.59H337Z" transform="translate(-41.29 -146.8)"/><path class="cls-1" d="M344.76,370.36a6.85,6.85,0,0,1,6.9-7,7.33,7.33,0,0,1,5.19,2l-1,1.11a5.92,5.92,0,0,0-4.21-1.69,5.58,5.58,0,0,0,0,11.15,5.92,5.92,0,0,0,4.21-1.69l1,1.12a7.37,7.37,0,0,1-5.19,2A6.85,6.85,0,0,1,344.76,370.36Z" transform="translate(-41.29 -146.8)"/><path class="cls-1" d="M362.86,357.85h1.55v7.67a5.31,5.31,0,0,1,4.67-2.18c2.85,0,5,2,5,5.22v8.59H372.5v-8.37c0-2.58-1.54-4-3.83-4a4.2,4.2,0,0,0-4.26,3.35v9h-1.55Z" transform="translate(-41.29 -146.8)"/><path class="cls-1" d="M378.79,363.56h2.71v-3.31l1.55-.76v4.07h4.05l-.35,1.5h-3.7v8.45c0,1.49.55,2.14,2.2,2.14h1.66v1.5h-1.68c-2.42,0-3.73-1-3.73-3.59v-8.5h-2.36Z" transform="translate(-41.29 -146.8)"/><path class="cls-1" d="M392.1,370.36a6.83,6.83,0,0,1,6.63-7c3.56,0,6.34,2.26,6.44,7H393.71a5.35,5.35,0,0,0,5.3,5.55,6,6,0,0,0,4.24-1.66l1,1.09a7.48,7.48,0,0,1-5.21,2A6.84,6.84,0,0,1,392.1,370.36Zm1.72-1.36h9.64a4.52,4.52,0,0,0-4.78-4.22A5,5,0,0,0,393.82,369Z" transform="translate(-41.29 -146.8)"/><path class="cls-1" d="M411.32,363.56h1.55v2.07a4.79,4.79,0,0,1,4.07-2.15,5.47,5.47,0,0,1,.9.08v1.61a4.29,4.29,0,0,0-1.06-.14,4.11,4.11,0,0,0-3.91,2.83v9.29h-1.55Z" transform="translate(-41.29 -146.8)"/><path class="cls-1" d="M440.56,374.7l1.34-.81a3.54,3.54,0,0,0,3.31,2c1.69,0,3.05-.85,3.05-2.23s-.74-2-2.7-2.72l-1.25-.43c-2.44-.87-3.12-2.42-3.12-3.86,0-1.85,1.69-3.35,4.1-3.35a4.06,4.06,0,0,1,3.86,2.5l-1.33.58a2.63,2.63,0,0,0-2.58-1.64c-1.33,0-2.45.71-2.45,1.93,0,1.06.41,1.91,2.26,2.56l1.33.46c2.28.82,3.45,2.07,3.45,3.94s-1.71,3.7-4.7,3.7A5,5,0,0,1,440.56,374.7Z" transform="translate(-41.29 -146.8)"/><path class="cls-1" d="M453.61,363.56h2.72v-3.31l1.55-.76v4.07h4.05l-.36,1.5h-3.69v8.45c0,1.49.54,2.14,2.2,2.14h1.66v1.5h-1.69c-2.42,0-3.72-1-3.72-3.59v-8.5H454Z" transform="translate(-41.29 -146.8)"/><path class="cls-1" d="M471.63,375.65l-5.82-12.09h1.74l4.89,10.57,4.92-10.57h1.74l-8.94,18.59H468.5Z" transform="translate(-41.29 -146.8)"/><path class="cls-1" d="M484.27,357.85h1.55v19.3h-1.55Z" transform="translate(-41.29 -146.8)"/><path class="cls-1" d="M492.1,370.36a6.82,6.82,0,0,1,6.63-7c3.56,0,6.33,2.26,6.44,7H493.7a5.35,5.35,0,0,0,5.3,5.55,6,6,0,0,0,4.24-1.66l1,1.09a7.51,7.51,0,0,1-5.22,2A6.84,6.84,0,0,1,492.1,370.36Zm1.71-1.36h9.65a4.53,4.53,0,0,0-4.79-4.22A5,5,0,0,0,493.81,369Z" transform="translate(-41.29 -146.8)"/><path class="cls-1" d="M511.31,363.56h1.55v2.07a4.81,4.81,0,0,1,4.08-2.15,5.26,5.26,0,0,1,.89.08v1.61a4.21,4.21,0,0,0-1.05-.14,4.11,4.11,0,0,0-3.92,2.83v9.29h-1.55Z" transform="translate(-41.29 -146.8)"/></svg>