<?xml version="1.0" encoding="UTF-8"?>
<svg width="600px" height="74px" viewBox="0 0 600 74" version="1.1" xmlns="http://www.w3.org/2000/svg" xmlns:xlink="http://www.w3.org/1999/xlink">
    <!-- Generator: Sketch 54.1 (76490) - https://sketchapp.com -->
    <title>Group</title>
    <desc>Created with Sketch.</desc>
    <g id="Page-1" stroke="none" stroke-width="1" fill="none" fill-rule="evenodd">
        <g id="Artboard" transform="translate(-216.000000, -232.000000)" fill="#000000" fill-rule="nonzero">
            <g id="RK_Logo_classic-(1)-Copy" transform="translate(216.000000, 223.000000)">
                <g id="Group" transform="translate(0.000000, 9.000000)">
                    <path d="M10.95,22.45 L26.13,22.45 L25.23,26.77 C28.35,23.35 32.87,21.64 37.8,21.64 C39.41,21.64 41.32,21.84 43.03,22.44 L39.71,38.22 C37.6,37.01 34.99,36.51 32.37,36.51 C29.25,36.51 25.23,37.72 22.42,39.83 L15.48,72.7 L0.29,72.7 L10.95,22.45 Z" id="Path"></path>
                    <path d="M75.99,69.7 C72.77,72.21 68.55,73.52 64.23,73.52 C52.67,73.52 43.82,62.96 43.82,51.3 C43.82,34.71 55.38,21.65 72.27,21.65 C76.89,21.65 81.22,22.86 84.23,25.47 L84.93,22.45 L99.91,22.45 L89.25,72.71 L75.58,72.71 L75.99,69.7 Z M77.6,56.33 L81.22,39.04 C79.01,36.53 75.69,35.52 72.47,35.52 C65.13,35.52 59,41.05 59,49.29 C59,55.92 62.92,59.64 68.45,59.64 C71.67,59.65 75.08,58.44 77.6,56.33 Z" id="Shape"></path>
                    <path d="M133.89,69.7 C130.67,72.21 126.45,73.52 122.13,73.52 C110.57,73.52 101.72,62.96 101.72,51.3 C101.72,34.71 113.28,21.65 130.17,21.65 C134.79,21.65 139.02,22.76 142.03,25.37 L147.16,1.34 L162.34,1.34 L147.16,72.71 L133.49,72.71 L133.89,69.7 Z M135.5,56.33 L139.12,39.04 C136.91,36.43 133.59,35.52 130.37,35.52 C123.03,35.52 116.9,41.05 116.9,49.29 C116.9,55.92 120.82,59.64 126.35,59.64 C129.57,59.65 132.99,58.44 135.5,56.33 Z" id="Shape"></path>
                    <polygon id="Path" points="178.13 47.58 172.8 72.71 157.62 72.71 172.8 1.34 187.98 1.34 178.63 45.37 199.24 22.45 217.33 22.45 194.21 48.08 207.78 72.71 191.9 72.71"></polygon>
                    <path d="M235.43,73.52 C220.15,73.52 211.61,62.16 211.61,49.9 C211.61,33.92 223.27,21.65 240.26,21.65 C255.54,21.65 264.08,32.91 264.08,45.17 C264.08,61.15 252.42,73.52 235.43,73.52 Z M236.73,59.34 C243.77,59.34 248.79,53.81 248.79,46.47 C248.79,39.84 244.47,35.81 238.94,35.81 C231.9,35.81 226.88,41.24 226.88,48.58 C226.88,55.22 231.2,59.34 236.73,59.34 Z" id="Shape"></path>
                    <path d="M332.74,47.38 C333.04,45.77 333.24,44.26 333.24,42.96 C333.24,38.54 331.33,35.52 326.91,35.52 C324.5,35.52 319.77,37.53 317.26,41.75 C317.16,43.36 316.96,45.07 316.56,46.68 L311.03,72.72 L295.85,72.72 L301.28,47.39 C301.58,45.78 301.78,44.27 301.78,42.97 C301.78,38.55 299.87,35.53 295.45,35.53 C293.04,35.53 288.82,37.44 286.4,40.86 L279.56,72.73 L264.38,72.73 L275.04,22.47 L290.02,22.47 L289.32,26.19 C291.33,24.08 295.55,21.67 300.68,21.67 C306.51,21.67 310.93,24.18 313.85,28.2 C316.46,25.69 321.99,21.67 330.14,21.67 C342.3,21.67 348.74,29.31 348.74,40.07 C348.74,42.18 348.54,44.39 348.04,46.7 L342.51,72.74 L327.33,72.74 L332.74,47.38 Z" id="Path"></path>
                    <path d="M367.22,1.34 L382.4,1.34 L377.47,24.46 C380.39,22.65 383.7,21.65 387.52,21.65 C399.68,21.65 408.23,32.2 408.23,43.87 C408.23,60.46 397.88,73.53 379.78,73.53 C375.06,73.53 370.83,72.42 367.82,69.81 L367.22,72.73 L352.04,72.73 L367.22,1.34 Z M374.36,38.94 L370.74,56.13 C372.95,58.74 376.27,59.65 379.59,59.65 C386.93,59.65 393.06,54.12 393.06,45.88 C393.06,39.25 389.14,35.53 383.61,35.53 C380.39,35.52 376.87,36.73 374.36,38.94 Z" id="Shape"></path>
                    <path d="M421.81,22.45 L437.09,22.45 L426.43,72.71 L411.15,72.71 L421.81,22.45 Z M424.02,15.31 C423.32,14.3 422.81,12.29 422.81,10.59 C422.81,4.46 426.93,0.54 433.16,0.54 C437.38,0.54 441.3,3.25 441.3,8.08 C441.3,11.3 439.99,13.51 438.18,15.32 L424.02,15.32 L424.02,15.31 Z" id="Shape"></path>
                    <path d="M448.95,22.45 L463.93,22.45 L463.23,26.47 C466.65,23.35 470.87,21.64 476.6,21.64 C487.36,21.64 493.39,30.18 493.39,39.93 C493.39,41.64 493.19,43.45 492.79,45.16 L486.96,72.7 L471.78,72.7 L477.31,46.46 C477.61,45.15 477.71,43.95 477.71,42.74 C477.71,38.52 475.8,35.5 470.37,35.5 C467.05,35.5 463.43,37.01 460.32,40.53 L453.48,72.7 L438.3,72.7 L448.95,22.45 Z" id="Path"></path>
                    <path d="M529.07,69.7 C525.85,72.21 521.63,73.52 517.31,73.52 C505.75,73.52 496.9,62.96 496.9,51.3 C496.9,34.71 508.46,21.65 525.35,21.65 C529.97,21.65 534.3,22.86 537.31,25.47 L538.01,22.45 L552.99,22.45 L542.33,72.71 L528.66,72.71 L529.07,69.7 Z M530.68,56.33 L534.3,39.04 C532.09,36.53 528.77,35.52 525.55,35.52 C518.21,35.52 512.08,41.05 512.08,49.29 C512.08,55.92 516,59.64 521.53,59.64 C524.75,59.65 528.16,58.44 530.68,56.33 Z" id="Shape"></path>
                    <path d="M559.53,22.45 L570.19,22.45 L571.9,14.91 L588.59,7.37 L585.37,22.45 L599.64,22.45 L596.62,35.72 L582.55,35.72 L578.93,52.91 C578.73,53.71 578.63,54.52 578.63,55.12 C578.63,57.73 580.14,58.84 583.46,58.84 L591.7,58.84 L588.78,72.71 L577.42,72.71 C568.27,72.71 562.94,67.88 562.94,58.94 C562.94,57.13 563.14,55.12 563.64,52.91 L567.36,35.72 L559.52,35.72 L559.52,22.45 L559.53,22.45 Z" id="Path"></path>
                </g>
            </g>
        </g>
    </g>
</svg>